<?xml version="1.0" encoding="utf-8"?>
<svg width="495.215087890625px" height="137.6px" xmlns="http://www.w3.org/2000/svg" viewBox="48.635 48.179 401.092 97.261" style="background: none;" preserveAspectRatio="none" xmlns:bx="https://boxy-svg.com"><defs><filter id="editing-hole" x="-100%" y="-100%" width="300%" height="300%"><feFlood flood-color="#fff36a" result="black"/><feMorphology operator="dilate" radius="2" in="SourceGraphic" result="erode"/><feGaussianBlur in="erode" stdDeviation="4" result="blur"/><feOffset in="blur" dx="2" dy="2" result="offset"/><feComposite operator="atop" in="offset" in2="black" result="merge"/><feComposite operator="in" in="merge" in2="SourceGraphic" result="inner-shadow"/></filter><bx:export><bx:file format="svg" path="Sin título.svg"/></bx:export></defs><g filter="url(#editing-hole)"><g transform="translate(72.07520866394043, 104.50500297546387)"><path d="M23.81-44.03L23.81-44.03Q46.91-44.03 46.91-22.02L46.91-22.02L46.91-22.02Q46.91 0 23.81 0L23.81 0L4.74 0L4.74-44.03L23.81-44.03ZM18.88-33.47L18.88-10.56L23.55-10.56L23.55-10.56Q32.45-10.56 32.45-20.10L32.45-20.10L32.45-23.94L32.45-23.94Q32.45-33.47 23.55-33.47L23.55-33.47L18.88-33.47ZM71.10-34.56L71.10-34.56Q80.38-34.56 85.28-30.21L85.28-30.21L85.28-30.21Q90.18-25.86 90.18-16.90L90.18-16.90L90.18-14.72L64.83-14.72L64.83-14.72Q64.83-11.07 66.46-9.22L66.46-9.22L66.46-9.22Q68.10-7.36 71.62-7.36L71.62-7.36L71.62-7.36Q74.82-7.36 76.32-8.70L76.32-8.70L76.32-8.70Q77.82-10.05 77.82-12.29L77.82-12.29L90.18-12.29L90.18-12.29Q90.18-6.14 85.50-2.69L85.50-2.69L85.50-2.69Q80.83 0.77 71.87 0.77L71.87 0.77L71.87 0.77Q62.46 0.77 57.28-3.62L57.28-3.62L57.28-3.62Q52.10-8 52.10-16.90L52.10-16.90L52.10-16.90Q52.10-25.60 57.15-30.08L57.15-30.08L57.15-30.08Q62.21-34.56 71.10-34.56L71.10-34.56ZM71.62-26.43L71.62-26.43Q65.60-26.43 64.90-20.74L64.90-20.74L77.31-20.74L77.31-20.74Q77.31-23.36 75.81-24.90L75.81-24.90L75.81-24.90Q74.30-26.43 71.62-26.43L71.62-26.43ZM118.66 0L105.28 0L92.48-33.79L106.18-33.79L112.38-12.74L112.83-12.74L119.04-33.79L131.58-33.79L118.66 0ZM152.90-34.56L152.90-34.56Q162.18-34.56 167.07-30.21L167.07-30.21L167.07-30.21Q171.97-25.86 171.97-16.90L171.97-16.90L171.97-14.72L146.62-14.72L146.62-14.72Q146.62-11.07 148.26-9.22L148.26-9.22L148.26-9.22Q149.89-7.36 153.41-7.36L153.41-7.36L153.41-7.36Q156.61-7.36 158.11-8.70L158.11-8.70L158.11-8.70Q159.62-10.05 159.62-12.29L159.62-12.29L171.97-12.29L171.97-12.29Q171.97-6.14 167.30-2.69L167.30-2.69L167.30-2.69Q162.62 0.77 153.66 0.77L153.66 0.77L153.66 0.77Q144.26 0.77 139.07-3.62L139.07-3.62L139.07-3.62Q133.89-8 133.89-16.90L133.89-16.90L133.89-16.90Q133.89-25.60 138.94-30.08L138.94-30.08L138.94-30.08Q144-34.56 152.90-34.56L152.90-34.56ZM153.41-26.43L153.41-26.43Q147.39-26.43 146.69-20.74L146.69-20.74L159.10-20.74L159.10-20.74Q159.10-23.36 157.60-24.90L157.60-24.90L157.60-24.90Q156.10-26.43 153.41-26.43L153.41-26.43ZM191.30 0L178.56 0L178.56-46.40L191.30-46.40L191.30 0ZM216.90-34.56L216.90-34.56Q225.79-34.56 230.88-30.05L230.88-30.05L230.88-30.05Q235.97-25.54 235.97-16.90L235.97-16.90L235.97-16.90Q235.97-8.26 230.88-3.74L230.88-3.74L230.88-3.74Q225.79 0.77 216.90 0.77L216.90 0.77L216.90 0.77Q208 0.77 202.94-3.71L202.94-3.71L202.94-3.71Q197.89-8.19 197.89-16.90L197.89-16.90L197.89-16.90Q197.89-25.60 202.94-30.08L202.94-30.08L202.94-30.08Q208-34.56 216.90-34.56L216.90-34.56ZM216.90-25.92L216.90-25.92Q210.62-25.92 210.62-18.69L210.62-18.69L210.62-15.04L210.62-15.04Q210.62-7.87 216.90-7.87L216.90-7.87L216.90-7.87Q223.23-7.87 223.23-15.04L223.23-15.04L223.23-18.69L223.23-18.69Q223.23-25.92 216.90-25.92L216.90-25.92ZM264.38-34.56L264.38-34.56Q271.23-34.56 274.94-30.08L274.94-30.08L274.94-30.08Q278.66-25.60 278.66-16.83L278.66-16.83L278.66-16.83Q278.66-8.13 274.94-3.68L274.94-3.68L274.94-3.68Q271.23 0.77 264.38 0.77L264.38 0.77L264.38 0.77Q258.50 0.77 254.91-3.07L254.91-3.07L254.91 12.61L242.18 12.61L242.18-33.79L252.54-33.79L253.63-28.99L253.63-28.99Q257.34-34.56 264.38-34.56L264.38-34.56ZM260.42-25.15L260.42-25.15Q257.60-25.15 256.19-23.17L256.19-23.17L256.19-23.17Q254.78-21.18 254.78-17.98L254.78-17.98L254.78-15.87L254.78-15.87Q254.78-12.67 256.19-10.66L256.19-10.66L256.19-10.66Q257.60-8.64 260.42-8.64L260.42-8.64L260.42-8.64Q265.92-8.64 265.92-15.23L265.92-15.23L265.92-18.62L265.92-18.62Q265.92-25.15 260.42-25.15L260.42-25.15ZM302.27-34.56L302.27-34.56Q311.55-34.56 316.45-30.21L316.45-30.21L316.45-30.21Q321.34-25.86 321.34-16.90L321.34-16.90L321.34-14.72L296-14.72L296-14.72Q296-11.07 297.63-9.22L297.63-9.22L297.63-9.22Q299.26-7.36 302.78-7.36L302.78-7.36L302.78-7.36Q305.98-7.36 307.49-8.70L307.49-8.70L307.49-8.70Q308.99-10.05 308.99-12.29L308.99-12.29L321.34-12.29L321.34-12.29Q321.34-6.14 316.67-2.69L316.67-2.69L316.67-2.69Q312 0.77 303.04 0.77L303.04 0.77L303.04 0.77Q293.63 0.77 288.45-3.62L288.45-3.62L288.45-3.62Q283.26-8 283.26-16.90L283.26-16.90L283.26-16.90Q283.26-25.60 288.32-30.08L288.32-30.08L288.32-30.08Q293.38-34.56 302.27-34.56L302.27-34.56ZM302.78-26.43L302.78-26.43Q296.77-26.43 296.06-20.74L296.06-20.74L308.48-20.74L308.48-20.74Q308.48-23.36 306.98-24.90L306.98-24.90L306.98-24.90Q305.47-26.43 302.78-26.43L302.78-26.43ZM348.03-34.62L348.03-34.62Q349.50-34.62 350.66-34.27L350.66-34.27L350.66-34.27Q351.81-33.92 351.81-33.86L351.81-33.86L351.81-23.17L347.71-23.17L347.71-23.17Q343.74-23.17 341.98-21.12L341.98-21.12L341.98-21.12Q340.22-19.07 340.22-15.04L340.22-15.04L340.22 0L327.49 0L327.49-33.79L337.92-33.79L338.75-28.67L338.75-28.67Q339.90-31.62 342.40-33.12L342.40-33.12L342.40-33.12Q344.90-34.62 348.03-34.62L348.03-34.62Z" fill="#eca611"/></g></g><style>text {
  font-size: 64px;
  font-family: Arial Black;
  dominant-baseline: central;
  text-anchor: middle;
}</style></svg>