<?xml version="1.0" encoding="utf-8"?>
<svg width="753.55625px" height="137.6px" xmlns="http://www.w3.org/2000/svg" viewBox="-49.426 37.64 353.323 134.107" style="background: none;" preserveAspectRatio="none" xmlns:bx="https://boxy-svg.com"><defs><filter id="editing-hole" x="-100%" y="-100%" width="300%" height="300%"><feFlood flood-color="#140402" result="black"/><feMorphology operator="dilate" radius="2" in="SourceGraphic" result="erode"/><feGaussianBlur in="erode" stdDeviation="4" result="blur"/><feOffset in="blur" dx="2" dy="2" result="offset"/><feComposite operator="atop" in="offset" in2="black" result="merge"/><feComposite operator="in" in="merge" in2="SourceGraphic" result="inner-shadow"/></filter><bx:export><bx:file format="svg" path="Sin título.svg"/></bx:export></defs><g filter="url(#editing-hole)" style="" transform="matrix(0.90834, 0, 0, 1, -1.53806, 0)"><g transform="translate(-21.5200252532959, 98.58500289916992)"><g transform="matrix(1, 0, 0, 1, 5.49403, 0.499044)"><g filter="url(#editing-hole)" transform="matrix(0.881311, 0, 0, 0.80053, -61.9845, -35.4188)"><g transform="translate(112.83998680114746, 103.00000190734863)"><path d="M60.72 0L45.28 0L22.16-26.72L22.16 0L5.92 0L5.92-55.04L21.36-55.04L44.48-27.92L44.48-55.04L60.72-55.04L60.72 0ZM92.32-43.20L92.32-43.20Q102-43.20 108.08-39.96L108.08-39.96L108.08-39.96Q114.16-36.72 114.16-29.44L114.16-29.44L114.16-12.96L114.16-12.96Q114.16-11.60 114.80-10.72L114.80-10.72L114.80-10.72Q115.44-9.84 116.72-9.84L116.72-9.84L119.60-9.84L119.60-0.64L119.60-0.64Q119.36-0.48 118.36-0.12L118.36-0.12L118.36-0.12Q117.36 0.24 115.52 0.60L115.52 0.60L115.52 0.60Q113.68 0.96 111.28 0.96L111.28 0.96L111.28 0.96Q106.64 0.96 103.64-0.44L103.64-0.44L103.64-0.44Q100.64-1.84 99.52-4.32L99.52-4.32L99.52-4.32Q96.48-1.92 92.72-0.48L92.72-0.48L92.72-0.48Q88.96 0.96 83.92 0.96L83.92 0.96L83.92 0.96Q69.04 0.96 69.04-10.88L69.04-10.88L69.04-10.88Q69.04-17.04 72.36-20.28L72.36-20.28L72.36-20.28Q75.68-23.52 81.92-24.72L81.92-24.72L81.92-24.72Q88.16-25.92 98.24-25.92L98.24-25.92L98.24-28L98.24-28Q98.24-30.48 96.52-31.76L96.52-31.76L96.52-31.76Q94.80-33.04 92.08-33.04L92.08-33.04L92.08-33.04Q89.60-33.04 87.80-32.16L87.80-32.16L87.80-32.16Q86-31.28 86-29.36L86-29.36L86-29.04L70.32-29.04L70.32-29.04Q70.24-29.44 70.24-30.16L70.24-30.16L70.24-30.16Q70.24-36.16 75.96-39.68L75.96-39.68L75.96-39.68Q81.68-43.20 92.32-43.20L92.32-43.20ZM98.24-18.40L98.24-18.40Q91.44-18.40 88.20-16.92L88.20-16.92L88.20-16.92Q84.96-15.44 84.96-12.96L84.96-12.96L84.96-12.96Q84.96-8.96 90.40-8.96L90.40-8.96L90.40-8.96Q93.52-8.96 95.88-10.64L95.88-10.64L95.88-10.64Q98.24-12.32 98.24-14.80L98.24-14.80L98.24-18.40ZM152.72 0L136 0L120-42.24L137.12-42.24L144.88-15.92L145.44-15.92L153.20-42.24L168.88-42.24L152.72 0ZM194.56-43.20L194.56-43.20Q204.24-43.20 210.32-39.96L210.32-39.96L210.32-39.96Q216.40-36.72 216.40-29.44L216.40-29.44L216.40-12.96L216.40-12.96Q216.40-11.60 217.04-10.72L217.04-10.72L217.04-10.72Q217.68-9.84 218.96-9.84L218.96-9.84L221.84-9.84L221.84-0.64L221.84-0.64Q221.60-0.48 220.60-0.12L220.60-0.12L220.60-0.12Q219.60 0.24 217.76 0.60L217.76 0.60L217.76 0.60Q215.92 0.96 213.52 0.96L213.52 0.96L213.52 0.96Q208.88 0.96 205.88-0.44L205.88-0.44L205.88-0.44Q202.88-1.84 201.76-4.32L201.76-4.32L201.76-4.32Q198.72-1.92 194.96-0.48L194.96-0.48L194.96-0.48Q191.20 0.96 186.16 0.96L186.16 0.96L186.16 0.96Q171.28 0.96 171.28-10.88L171.28-10.88L171.28-10.88Q171.28-17.04 174.60-20.28L174.60-20.28L174.60-20.28Q177.92-23.52 184.16-24.72L184.16-24.72L184.16-24.72Q190.40-25.92 200.48-25.92L200.48-25.92L200.48-28L200.48-28Q200.48-30.48 198.76-31.76L198.76-31.76L198.76-31.76Q197.04-33.04 194.32-33.04L194.32-33.04L194.32-33.04Q191.84-33.04 190.04-32.16L190.04-32.16L190.04-32.16Q188.24-31.28 188.24-29.36L188.24-29.36L188.24-29.04L172.56-29.04L172.56-29.04Q172.48-29.44 172.48-30.16L172.48-30.16L172.48-30.16Q172.48-36.16 178.20-39.68L178.20-39.68L178.20-39.68Q183.92-43.20 194.56-43.20L194.56-43.20ZM200.48-18.40L200.48-18.40Q193.68-18.40 190.44-16.92L190.44-16.92L190.44-16.92Q187.20-15.44 187.20-12.96L187.20-12.96L187.20-12.96Q187.20-8.96 192.64-8.96L192.64-8.96L192.64-8.96Q195.76-8.96 198.12-10.64L198.12-10.64L198.12-10.64Q200.48-12.32 200.48-14.80L200.48-14.80L200.48-18.40ZM247.12-43.20L247.12-43.20Q255.60-43.20 261.48-39.88L261.48-39.88L261.48-39.88Q267.36-36.56 267.36-29.60L267.36-29.60L252.56-29.60L252.56-29.60Q252.56-31.92 250.48-32.88L250.48-32.88L250.48-32.88Q249.04-33.68 246.88-33.68L246.88-33.68L246.88-33.68Q241.12-33.68 241.12-30.96L241.12-30.96L241.12-30.96Q241.12-29.44 243.12-28.80L243.12-28.80L243.12-28.80Q245.12-28.16 249.68-27.44L249.68-27.44L249.68-27.44Q255.28-26.64 259.04-25.56L259.04-25.56L259.04-25.56Q262.80-24.48 265.60-21.72L265.60-21.72L265.60-21.72Q268.40-18.96 268.40-14L268.40-14L268.40-14Q268.40-5.92 262.36-2.48L262.36-2.48L262.36-2.48Q256.32 0.96 246.56 0.96L246.56 0.96L246.56 0.96Q240.96 0.96 236-0.60L236-0.60L236-0.60Q231.04-2.16 227.92-5.44L227.92-5.44L227.92-5.44Q224.80-8.72 224.80-13.76L224.80-13.76L239.60-13.76L239.60-13.44L239.60-13.44Q239.68-10.72 241.88-9.64L241.88-9.64L241.88-9.64Q244.08-8.56 246.56-8.56L246.56-8.56L246.56-8.56Q253.20-8.56 253.20-11.68L253.20-11.68L253.20-11.68Q253.20-13.28 251.12-14L251.12-14L251.12-14Q249.04-14.72 244.32-15.52L244.32-15.52L244.32-15.52Q238.64-16.48 235-17.60L235-17.60L235-17.60Q231.36-18.72 228.64-21.40L228.64-21.40L228.64-21.40Q225.92-24.08 225.92-28.88L225.92-28.88L225.92-28.88Q225.92-36.64 231.80-39.92L231.80-39.92L231.80-39.92Q237.68-43.20 247.12-43.20L247.12-43.20Z" fill="#ffffff"/></g></g><g filter="url(#editing-hole)" transform="matrix(0.881311, 0, 0, 0.80053, -61.9845, -89.8146)"><g transform="translate(60.79998207092285, 104.48000144958496)"><path d="M5.92 0L5.92-55.04L53.52-55.04L53.52-41.84L23.60-41.84L23.60-34.24L49.20-34.24L49.20-21.60L23.60-21.60L23.60-13.20L54.08-13.20L54.08 0L5.92 0ZM118.64-43.20L118.64-43.20Q125.84-43.20 129.44-39.08L129.44-39.08L129.44-39.08Q133.04-34.96 133.04-27.36L133.04-27.36L133.04 0L117.12 0L117.12-25.44L117.12-25.44Q117.12-28.16 115.80-29.80L115.80-29.80L115.80-29.80Q114.48-31.44 112.08-31.44L112.08-31.44L112.08-31.44Q109.28-31.44 107.52-29.52L107.52-29.52L107.52-29.52Q105.76-27.60 105.76-24.80L105.76-24.80L105.76 0L89.84 0L89.84-25.44L89.84-25.44Q89.84-28.16 88.52-29.80L88.52-29.80L88.52-29.80Q87.20-31.44 84.80-31.44L84.80-31.44L84.80-31.44Q82-31.44 80.24-29.52L80.24-29.52L80.24-29.52Q78.48-27.60 78.48-24.80L78.48-24.80L78.48 0L62.56 0L62.56-42.24L75.60-42.24L76.64-35.92L76.64-35.92Q79.04-39.28 83-41.24L83-41.24L83-41.24Q86.96-43.20 91.36-43.20L91.36-43.20L91.36-43.20Q100.88-43.20 104.16-35.92L104.16-35.92L104.16-35.92Q106.64-39.28 110.52-41.24L110.52-41.24L110.52-41.24Q114.40-43.20 118.64-43.20L118.64-43.20ZM163.44-43.20L163.44-43.20Q173.12-43.20 179.20-39.96L179.20-39.96L179.20-39.96Q185.28-36.72 185.28-29.44L185.28-29.44L185.28-12.96L185.28-12.96Q185.28-11.60 185.92-10.72L185.92-10.72L185.92-10.72Q186.56-9.84 187.84-9.84L187.84-9.84L190.72-9.84L190.72-0.64L190.72-0.64Q190.48-0.48 189.48-0.12L189.48-0.12L189.48-0.12Q188.48 0.24 186.64 0.60L186.64 0.60L186.64 0.60Q184.80 0.96 182.40 0.96L182.40 0.96L182.40 0.96Q177.76 0.96 174.76-0.44L174.76-0.44L174.76-0.44Q171.76-1.84 170.64-4.32L170.64-4.32L170.64-4.32Q167.60-1.92 163.84-0.48L163.84-0.48L163.84-0.48Q160.08 0.96 155.04 0.96L155.04 0.96L155.04 0.96Q140.16 0.96 140.16-10.88L140.16-10.88L140.16-10.88Q140.16-17.04 143.48-20.28L143.48-20.28L143.48-20.28Q146.80-23.52 153.04-24.72L153.04-24.72L153.04-24.72Q159.28-25.92 169.36-25.92L169.36-25.92L169.36-28L169.36-28Q169.36-30.48 167.64-31.76L167.64-31.76L167.64-31.76Q165.92-33.04 163.20-33.04L163.20-33.04L163.20-33.04Q160.72-33.04 158.92-32.16L158.92-32.16L158.92-32.16Q157.12-31.28 157.12-29.36L157.12-29.36L157.12-29.04L141.44-29.04L141.44-29.04Q141.36-29.44 141.36-30.16L141.36-30.16L141.36-30.16Q141.36-36.16 147.08-39.68L147.08-39.68L147.08-39.68Q152.80-43.20 163.44-43.20L163.44-43.20ZM169.36-18.40L169.36-18.40Q162.56-18.40 159.32-16.92L159.32-16.92L159.32-16.92Q156.08-15.44 156.08-12.96L156.08-12.96L156.08-12.96Q156.08-8.96 161.52-8.96L161.52-8.96L161.52-8.96Q164.64-8.96 167-10.64L167-10.64L167-10.64Q169.36-12.32 169.36-14.80L169.36-14.80L169.36-18.40ZM225.04-43.20L225.04-43.20Q232.40-43.20 236.08-39.12L236.08-39.12L236.08-39.12Q239.76-35.04 239.76-27.36L239.76-27.36L239.76 0L223.84 0L223.84-25.44L223.84-25.44Q223.84-28.16 222.44-29.80L222.44-29.80L222.44-29.80Q221.04-31.44 218.48-31.44L218.48-31.44L218.48-31.44Q215.52-31.44 213.68-29.52L213.68-29.52L213.68-29.52Q211.84-27.60 211.84-24.80L211.84-24.80L211.84 0L195.92 0L195.92-42.24L208.96-42.24L210-35.84L210-35.84Q212.48-39.20 216.52-41.20L216.52-41.20L216.52-41.20Q220.56-43.20 225.04-43.20L225.04-43.20ZM292.96 0L279.92 0L278.88-6.40L278.88-6.40Q276.40-2.96 272.36-1L272.36-1L272.36-1Q268.32 0.96 263.84 0.96L263.84 0.96L263.84 0.96Q256.48 0.96 252.80-3.12L252.80-3.12L252.80-3.12Q249.12-7.20 249.12-14.88L249.12-14.88L249.12-42.24L265.04-42.24L265.04-16.80L265.04-16.80Q265.04-14.08 266.44-12.44L266.44-12.44L266.44-12.44Q267.84-10.80 270.40-10.80L270.40-10.80L270.40-10.80Q273.36-10.80 275.20-12.72L275.20-12.72L275.20-12.72Q277.04-14.64 277.04-17.44L277.04-17.44L277.04-42.24L292.96-42.24L292.96 0ZM324.48-43.20L324.48-43.20Q336.08-43.20 342.20-37.76L342.20-37.76L342.20-37.76Q348.32-32.32 348.32-21.12L348.32-21.12L348.32-18.40L316.64-18.40L316.64-18.40Q316.64-13.84 318.68-11.52L318.68-11.52L318.68-11.52Q320.72-9.20 325.12-9.20L325.12-9.20L325.12-9.20Q329.12-9.20 331.00-10.88L331.00-10.88L331.00-10.88Q332.88-12.56 332.88-15.36L332.88-15.36L348.32-15.36L348.32-15.36Q348.32-7.68 342.48-3.36L342.48-3.36L342.48-3.36Q336.64 0.96 325.44 0.96L325.44 0.96L325.44 0.96Q313.68 0.96 307.20-4.52L307.20-4.52L307.20-4.52Q300.72-10 300.72-21.12L300.72-21.12L300.72-21.12Q300.72-32 307.04-37.60L307.04-37.60L307.04-37.60Q313.36-43.20 324.48-43.20L324.48-43.20ZM325.12-33.04L325.12-33.04Q317.60-33.04 316.72-25.92L316.72-25.92L332.24-25.92L332.24-25.92Q332.24-29.20 330.36-31.12L330.36-31.12L330.36-31.12Q328.48-33.04 325.12-33.04L325.12-33.04ZM372.48 0L356.56 0L356.56-58L372.48-58L372.48 0Z" fill="#ffffff"/></g></g></g></g></g><style>text {
  font-size: 64px;
  font-family: Arial Black;
  dominant-baseline: central;
  text-anchor: middle;
}</style></svg>