<svg width="533.8249999999999px" height="166.4px" xmlns="http://www.w3.org/2000/svg" viewBox="-16.912499999999966 -8.200000000000003 533.8249999999999 166.4" style="background: none;" preserveAspectRatio="xMidYMid"><defs><filter id="editing-hole" x="-100%" y="-100%" width="300%" height="300%"><feFlood flood-color="#140402" result="black"></feFlood><feMorphology operator="dilate" radius="2" in="SourceGraphic" result="erode"></feMorphology><feGaussianBlur in="erode" stdDeviation="4" result="blur"></feGaussianBlur><feOffset in="blur" dx="2" dy="2" result="offset"></feOffset><feComposite operator="atop" in="offset" in2="black" result="merge"></feComposite><feComposite operator="in" in="merge" in2="SourceGraphic" result="inner-shadow"></feComposite></filter></defs><g filter="url(#editing-hole)"><g transform="translate(60.79998207092285, 104.48000144958496)"><path d="M5.92 0L5.92-55.04L53.52-55.04L53.52-41.84L23.60-41.84L23.60-34.24L49.20-34.24L49.20-21.60L23.60-21.60L23.60-13.20L54.08-13.20L54.08 0L5.92 0ZM118.64-43.20L118.64-43.20Q125.84-43.20 129.44-39.08L129.44-39.08L129.44-39.08Q133.04-34.96 133.04-27.36L133.04-27.36L133.04 0L117.12 0L117.12-25.44L117.12-25.44Q117.12-28.16 115.80-29.80L115.80-29.80L115.80-29.80Q114.48-31.44 112.08-31.44L112.08-31.44L112.08-31.44Q109.28-31.44 107.52-29.52L107.52-29.52L107.52-29.52Q105.76-27.60 105.76-24.80L105.76-24.80L105.76 0L89.84 0L89.84-25.44L89.84-25.44Q89.84-28.16 88.52-29.80L88.52-29.80L88.52-29.80Q87.20-31.44 84.80-31.44L84.80-31.44L84.80-31.44Q82-31.44 80.24-29.52L80.24-29.52L80.24-29.52Q78.48-27.60 78.48-24.80L78.48-24.80L78.48 0L62.56 0L62.56-42.24L75.60-42.24L76.64-35.92L76.64-35.92Q79.04-39.28 83-41.24L83-41.24L83-41.24Q86.96-43.20 91.36-43.20L91.36-43.20L91.36-43.20Q100.88-43.20 104.16-35.92L104.16-35.92L104.16-35.92Q106.64-39.28 110.52-41.24L110.52-41.24L110.52-41.24Q114.40-43.20 118.64-43.20L118.64-43.20ZM163.44-43.20L163.44-43.20Q173.12-43.20 179.20-39.96L179.20-39.96L179.20-39.96Q185.28-36.72 185.28-29.44L185.28-29.44L185.28-12.96L185.28-12.96Q185.28-11.60 185.92-10.72L185.92-10.72L185.92-10.72Q186.56-9.84 187.84-9.84L187.84-9.84L190.72-9.84L190.72-0.64L190.72-0.64Q190.48-0.48 189.48-0.12L189.48-0.12L189.48-0.12Q188.48 0.24 186.64 0.60L186.64 0.60L186.64 0.60Q184.80 0.96 182.40 0.96L182.40 0.96L182.40 0.96Q177.76 0.96 174.76-0.44L174.76-0.44L174.76-0.44Q171.76-1.84 170.64-4.32L170.64-4.32L170.64-4.32Q167.60-1.92 163.84-0.48L163.84-0.48L163.84-0.48Q160.08 0.96 155.04 0.96L155.04 0.96L155.04 0.96Q140.16 0.96 140.16-10.88L140.16-10.88L140.16-10.88Q140.16-17.04 143.48-20.28L143.48-20.28L143.48-20.28Q146.80-23.52 153.04-24.72L153.04-24.72L153.04-24.72Q159.28-25.92 169.36-25.92L169.36-25.92L169.36-28L169.36-28Q169.36-30.48 167.64-31.76L167.64-31.76L167.64-31.76Q165.92-33.04 163.20-33.04L163.20-33.04L163.20-33.04Q160.72-33.04 158.92-32.16L158.92-32.16L158.92-32.16Q157.12-31.28 157.12-29.36L157.12-29.36L157.12-29.04L141.44-29.04L141.44-29.04Q141.36-29.44 141.36-30.16L141.36-30.16L141.36-30.16Q141.36-36.16 147.08-39.68L147.08-39.68L147.08-39.68Q152.80-43.20 163.44-43.20L163.44-43.20ZM169.36-18.40L169.36-18.40Q162.56-18.40 159.32-16.92L159.32-16.92L159.32-16.92Q156.08-15.44 156.08-12.96L156.08-12.96L156.08-12.96Q156.08-8.96 161.52-8.96L161.52-8.96L161.52-8.96Q164.64-8.96 167-10.64L167-10.64L167-10.64Q169.36-12.32 169.36-14.80L169.36-14.80L169.36-18.40ZM225.04-43.20L225.04-43.20Q232.40-43.20 236.08-39.12L236.08-39.12L236.08-39.12Q239.76-35.04 239.76-27.36L239.76-27.36L239.76 0L223.84 0L223.84-25.44L223.84-25.44Q223.84-28.16 222.44-29.80L222.44-29.80L222.44-29.80Q221.04-31.44 218.48-31.44L218.48-31.44L218.48-31.44Q215.52-31.44 213.68-29.52L213.68-29.52L213.68-29.52Q211.84-27.60 211.84-24.80L211.84-24.80L211.84 0L195.92 0L195.92-42.24L208.96-42.24L210-35.84L210-35.84Q212.48-39.20 216.52-41.20L216.52-41.20L216.52-41.20Q220.56-43.20 225.04-43.20L225.04-43.20ZM292.96 0L279.92 0L278.88-6.40L278.88-6.40Q276.40-2.96 272.36-1L272.36-1L272.36-1Q268.32 0.96 263.84 0.96L263.84 0.96L263.84 0.96Q256.48 0.96 252.80-3.12L252.80-3.12L252.80-3.12Q249.12-7.20 249.12-14.88L249.12-14.88L249.12-42.24L265.04-42.24L265.04-16.80L265.04-16.80Q265.04-14.08 266.44-12.44L266.44-12.44L266.44-12.44Q267.84-10.80 270.40-10.80L270.40-10.80L270.40-10.80Q273.36-10.80 275.20-12.72L275.20-12.72L275.20-12.72Q277.04-14.64 277.04-17.44L277.04-17.44L277.04-42.24L292.96-42.24L292.96 0ZM324.48-43.20L324.48-43.20Q336.08-43.20 342.20-37.76L342.20-37.76L342.20-37.76Q348.32-32.32 348.32-21.12L348.32-21.12L348.32-18.40L316.64-18.40L316.64-18.40Q316.64-13.84 318.68-11.52L318.68-11.52L318.68-11.52Q320.72-9.20 325.12-9.20L325.12-9.20L325.12-9.20Q329.12-9.20 331.00-10.88L331.00-10.88L331.00-10.88Q332.88-12.56 332.88-15.36L332.88-15.36L348.32-15.36L348.32-15.36Q348.32-7.68 342.48-3.36L342.48-3.36L342.48-3.36Q336.64 0.96 325.44 0.96L325.44 0.96L325.44 0.96Q313.68 0.96 307.20-4.52L307.20-4.52L307.20-4.52Q300.72-10 300.72-21.12L300.72-21.12L300.72-21.12Q300.72-32 307.04-37.60L307.04-37.60L307.04-37.60Q313.36-43.20 324.48-43.20L324.48-43.20ZM325.12-33.04L325.12-33.04Q317.60-33.04 316.72-25.92L316.72-25.92L332.24-25.92L332.24-25.92Q332.24-29.20 330.36-31.12L330.36-31.12L330.36-31.12Q328.48-33.04 325.12-33.04L325.12-33.04ZM372.48 0L356.56 0L356.56-58L372.48-58L372.48 0Z" fill="#ffffff"></path></g></g><style>text {
  font-size: 64px;
  font-family: Arial Black;
  dominant-baseline: central;
  text-anchor: middle;
}</style></svg>