<svg width="386.8624267578125px" height="166.4px" xmlns="http://www.w3.org/2000/svg" viewBox="56.56878662109375 -8.200000000000003 386.8624267578125 166.4" style="background: none;" preserveAspectRatio="xMidYMid"><defs><filter id="editing-hole" x="-100%" y="-100%" width="300%" height="300%"><feFlood flood-color="#140402" result="black"></feFlood><feMorphology operator="dilate" radius="2" in="SourceGraphic" result="erode"></feMorphology><feGaussianBlur in="erode" stdDeviation="4" result="blur"></feGaussianBlur><feOffset in="blur" dx="2" dy="2" result="offset"></feOffset><feComposite operator="atop" in="offset" in2="black" result="merge"></feComposite><feComposite operator="in" in="merge" in2="SourceGraphic" result="inner-shadow"></feComposite></filter></defs><g filter="url(#editing-hole)"><g transform="translate(112.83998680114746, 103.00000190734863)"><path d="M60.72 0L45.28 0L22.16-26.72L22.16 0L5.92 0L5.92-55.04L21.36-55.04L44.48-27.92L44.48-55.04L60.72-55.04L60.72 0ZM92.32-43.20L92.32-43.20Q102-43.20 108.08-39.96L108.08-39.96L108.08-39.96Q114.16-36.72 114.16-29.44L114.16-29.44L114.16-12.96L114.16-12.96Q114.16-11.60 114.80-10.72L114.80-10.72L114.80-10.72Q115.44-9.84 116.72-9.84L116.72-9.84L119.60-9.84L119.60-0.64L119.60-0.64Q119.36-0.48 118.36-0.12L118.36-0.12L118.36-0.12Q117.36 0.24 115.52 0.60L115.52 0.60L115.52 0.60Q113.68 0.96 111.28 0.96L111.28 0.96L111.28 0.96Q106.64 0.96 103.64-0.44L103.64-0.44L103.64-0.44Q100.64-1.84 99.52-4.32L99.52-4.32L99.52-4.32Q96.48-1.92 92.72-0.48L92.72-0.48L92.72-0.48Q88.96 0.96 83.92 0.96L83.92 0.96L83.92 0.96Q69.04 0.96 69.04-10.88L69.04-10.88L69.04-10.88Q69.04-17.04 72.36-20.28L72.36-20.28L72.36-20.28Q75.68-23.52 81.92-24.72L81.92-24.72L81.92-24.72Q88.16-25.92 98.24-25.92L98.24-25.92L98.24-28L98.24-28Q98.24-30.48 96.52-31.76L96.52-31.76L96.52-31.76Q94.80-33.04 92.08-33.04L92.08-33.04L92.08-33.04Q89.60-33.04 87.80-32.16L87.80-32.16L87.80-32.16Q86-31.28 86-29.36L86-29.36L86-29.04L70.32-29.04L70.32-29.04Q70.24-29.44 70.24-30.16L70.24-30.16L70.24-30.16Q70.24-36.16 75.96-39.68L75.96-39.68L75.96-39.68Q81.68-43.20 92.32-43.20L92.32-43.20ZM98.24-18.40L98.24-18.40Q91.44-18.40 88.20-16.92L88.20-16.92L88.20-16.92Q84.96-15.44 84.96-12.96L84.96-12.96L84.96-12.96Q84.96-8.96 90.40-8.96L90.40-8.96L90.40-8.96Q93.52-8.96 95.88-10.64L95.88-10.64L95.88-10.64Q98.24-12.32 98.24-14.80L98.24-14.80L98.24-18.40ZM152.72 0L136 0L120-42.24L137.12-42.24L144.88-15.92L145.44-15.92L153.20-42.24L168.88-42.24L152.72 0ZM194.56-43.20L194.56-43.20Q204.24-43.20 210.32-39.96L210.32-39.96L210.32-39.96Q216.40-36.72 216.40-29.44L216.40-29.44L216.40-12.96L216.40-12.96Q216.40-11.60 217.04-10.72L217.04-10.72L217.04-10.72Q217.68-9.84 218.96-9.84L218.96-9.84L221.84-9.84L221.84-0.64L221.84-0.64Q221.60-0.48 220.60-0.12L220.60-0.12L220.60-0.12Q219.60 0.24 217.76 0.60L217.76 0.60L217.76 0.60Q215.92 0.96 213.52 0.96L213.52 0.96L213.52 0.96Q208.88 0.96 205.88-0.44L205.88-0.44L205.88-0.44Q202.88-1.84 201.76-4.32L201.76-4.32L201.76-4.32Q198.72-1.92 194.96-0.48L194.96-0.48L194.96-0.48Q191.20 0.96 186.16 0.96L186.16 0.96L186.16 0.96Q171.28 0.96 171.28-10.88L171.28-10.88L171.28-10.88Q171.28-17.04 174.60-20.28L174.60-20.28L174.60-20.28Q177.92-23.52 184.16-24.72L184.16-24.72L184.16-24.72Q190.40-25.92 200.48-25.92L200.48-25.92L200.48-28L200.48-28Q200.48-30.48 198.76-31.76L198.76-31.76L198.76-31.76Q197.04-33.04 194.32-33.04L194.32-33.04L194.32-33.04Q191.84-33.04 190.04-32.16L190.04-32.16L190.04-32.16Q188.24-31.28 188.24-29.36L188.24-29.36L188.24-29.04L172.56-29.04L172.56-29.04Q172.48-29.44 172.48-30.16L172.48-30.16L172.48-30.16Q172.48-36.16 178.20-39.68L178.20-39.68L178.20-39.68Q183.92-43.20 194.56-43.20L194.56-43.20ZM200.48-18.40L200.48-18.40Q193.68-18.40 190.44-16.92L190.44-16.92L190.44-16.92Q187.20-15.44 187.20-12.96L187.20-12.96L187.20-12.96Q187.20-8.96 192.64-8.96L192.64-8.96L192.64-8.96Q195.76-8.96 198.12-10.64L198.12-10.64L198.12-10.64Q200.48-12.32 200.48-14.80L200.48-14.80L200.48-18.40ZM247.12-43.20L247.12-43.20Q255.60-43.20 261.48-39.88L261.48-39.88L261.48-39.88Q267.36-36.56 267.36-29.60L267.36-29.60L252.56-29.60L252.56-29.60Q252.56-31.92 250.48-32.88L250.48-32.88L250.48-32.88Q249.04-33.68 246.88-33.68L246.88-33.68L246.88-33.68Q241.12-33.68 241.12-30.96L241.12-30.96L241.12-30.96Q241.12-29.44 243.12-28.80L243.12-28.80L243.12-28.80Q245.12-28.16 249.68-27.44L249.68-27.44L249.68-27.44Q255.28-26.64 259.04-25.56L259.04-25.56L259.04-25.56Q262.80-24.48 265.60-21.72L265.60-21.72L265.60-21.72Q268.40-18.96 268.40-14L268.40-14L268.40-14Q268.40-5.92 262.36-2.48L262.36-2.48L262.36-2.48Q256.32 0.96 246.56 0.96L246.56 0.96L246.56 0.96Q240.96 0.96 236-0.60L236-0.60L236-0.60Q231.04-2.16 227.92-5.44L227.92-5.44L227.92-5.44Q224.80-8.72 224.80-13.76L224.80-13.76L239.60-13.76L239.60-13.44L239.60-13.44Q239.68-10.72 241.88-9.64L241.88-9.64L241.88-9.64Q244.08-8.56 246.56-8.56L246.56-8.56L246.56-8.56Q253.20-8.56 253.20-11.68L253.20-11.68L253.20-11.68Q253.20-13.28 251.12-14L251.12-14L251.12-14Q249.04-14.72 244.32-15.52L244.32-15.52L244.32-15.52Q238.64-16.48 235-17.60L235-17.60L235-17.60Q231.36-18.72 228.64-21.40L228.64-21.40L228.64-21.40Q225.92-24.08 225.92-28.88L225.92-28.88L225.92-28.88Q225.92-36.64 231.80-39.92L231.80-39.92L231.80-39.92Q237.68-43.20 247.12-43.20L247.12-43.20Z" fill="#ffffff"></path></g></g><style>text {
  font-size: 64px;
  font-family: Arial Black;
  dominant-baseline: central;
  text-anchor: middle;
}</style></svg>